<svg width="200" height="50" viewBox="0 0 200 50" fill="none" xmlns="http://www.w3.org/2000/svg">
<path d="M8.53171 36.1829V15.022H12.9512L18.9073 31.8512L24.9512 15.022H29.3415V36.1829H26.1366V19.3244L20.2829 36.1829H17.5463L11.722 19.4561V36.1829H8.53171ZM34.2016 36.1829V21.0512H37.2162V36.1829H34.2016ZM34.1284 18.1244V15.0366H37.2748V18.1244H34.1284ZM41.7027 36.1829V14.4366H44.7906V23.261C45.0345 22.861 45.3613 22.4805 45.771 22.1195C46.1906 21.7585 46.6979 21.4659 47.293 21.2415C47.8979 21.0073 48.6003 20.8902 49.4003 20.8902C50.3857 20.8902 51.2735 21.0756 52.0637 21.4463C52.8637 21.8073 53.4979 22.3341 53.9662 23.0268C54.4442 23.7098 54.6832 24.5244 54.6832 25.4707V36.1829H51.5515V26.0415C51.5515 25.1927 51.2588 24.539 50.6735 24.0805C50.0881 23.622 49.3369 23.3927 48.4198 23.3927C47.8052 23.3927 47.2198 23.5 46.6637 23.7146C46.1174 23.9195 45.6735 24.2317 45.332 24.6512C45.0003 25.061 44.8345 25.5781 44.8345 26.2024V36.1829H41.7027ZM58.7824 36.1829V21.0512H61.797V36.1829H58.7824ZM58.7092 18.1244V15.0366H61.8556V18.1244H58.7092ZM66.2835 36.1829V21.0512H69.2835V24.1537C69.5372 23.4122 69.8884 22.7927 70.3372 22.2951C70.7957 21.7878 71.3274 21.4073 71.9323 21.1537C72.5372 20.8902 73.1762 20.7585 73.8494 20.7585C74.0543 20.7585 74.2494 20.7732 74.4348 20.8024C74.6201 20.822 74.7665 20.861 74.8738 20.9195V23.9341C74.747 23.8756 74.5811 23.8366 74.3762 23.8171C74.1811 23.7976 74.0104 23.7829 73.864 23.7732C73.2006 23.7244 72.5957 23.7585 72.0494 23.8756C71.5031 23.9927 71.0299 24.1878 70.6299 24.461C70.2396 24.7341 69.9372 25.0902 69.7226 25.5293C69.5177 25.9683 69.4152 26.4854 69.4152 27.0805V36.1829H66.2835ZM92.7938 36.4756C91.7596 36.4756 90.7645 36.3488 89.8084 36.0951C88.862 35.8415 87.9986 35.4659 87.2181 34.9683C86.4474 34.461 85.8084 33.8317 85.3011 33.0805C84.8035 32.3293 84.4913 31.4512 84.3645 30.4463H87.6279C87.7938 31.2073 88.1206 31.8463 88.6084 32.3634C89.106 32.8805 89.7255 33.2707 90.4669 33.5341C91.2181 33.7976 92.0474 33.9293 92.9547 33.9293C93.7938 33.9293 94.5694 33.7976 95.2816 33.5341C95.9938 33.2707 96.5694 32.8902 97.0084 32.3927C97.4474 31.8951 97.6669 31.2854 97.6669 30.5634C97.6669 29.7537 97.3938 29.1146 96.8474 28.6463C96.3108 28.1683 95.5011 27.7878 94.4181 27.5049L90.1742 26.4512C89.1499 26.2073 88.2474 25.861 87.4669 25.4122C86.6864 24.9537 86.0816 24.3537 85.6523 23.6122C85.223 22.861 85.0084 21.9341 85.0084 20.8317C85.0084 19.6024 85.345 18.5341 86.0181 17.6268C86.7011 16.7098 87.623 16.0024 88.784 15.5049C89.9547 15.0073 91.2767 14.7585 92.7499 14.7585C94.4377 14.7585 95.8572 15.0463 97.0084 15.622C98.1694 16.1976 99.0474 16.9585 99.6425 17.9049C100.247 18.8415 100.555 19.861 100.564 20.9634H97.3742C97.2864 20.0659 97.0181 19.3537 96.5694 18.8268C96.1303 18.2902 95.5694 17.9049 94.8864 17.6707C94.2133 17.4366 93.4669 17.3195 92.6474 17.3195C91.2035 17.3195 90.1157 17.6415 89.384 18.2854C88.662 18.9195 88.3011 19.6756 88.3011 20.5537C88.3011 21.3634 88.5645 22.0024 89.0913 22.4707C89.6279 22.939 90.4181 23.3 91.462 23.5537L95.5596 24.5634C96.8474 24.8463 97.8767 25.2707 98.6474 25.8366C99.4279 26.3927 99.9889 27.0512 100.33 27.8122C100.672 28.5634 100.843 29.3878 100.843 30.2854C100.843 31.4854 100.506 32.5537 99.8328 33.4902C99.1596 34.4171 98.2181 35.1488 97.0084 35.6854C95.8084 36.2122 94.4035 36.4756 92.7938 36.4756ZM108.844 36.4756C107.868 36.4756 107 36.3 106.239 35.9488C105.488 35.5976 104.897 35.0902 104.468 34.4268C104.039 33.7634 103.824 32.9634 103.824 32.0268C103.824 30.3488 104.414 29.0951 105.595 28.2659C106.785 27.4366 108.688 26.9976 111.302 26.9488L113.79 26.8756V25.7781C113.79 24.9098 113.532 24.2268 113.014 23.7293C112.497 23.2317 111.697 22.9878 110.614 22.9976C109.814 22.9976 109.097 23.1829 108.463 23.5537C107.829 23.9244 107.414 24.5341 107.219 25.3829H104.512C104.571 24.3781 104.858 23.5341 105.375 22.8512C105.902 22.1585 106.624 21.6366 107.541 21.2854C108.458 20.9341 109.532 20.7585 110.761 20.7585C112.146 20.7585 113.283 20.9488 114.171 21.3293C115.058 21.7 115.717 22.2463 116.146 22.9683C116.585 23.6902 116.805 24.5683 116.805 25.6024V36.1829H114.141L113.907 33.4024C113.341 34.5634 112.624 35.3683 111.756 35.8171C110.888 36.2561 109.917 36.4756 108.844 36.4756ZM109.824 34.2951C110.302 34.2951 110.775 34.2122 111.244 34.0463C111.712 33.8707 112.136 33.6366 112.517 33.3439C112.897 33.0415 113.2 32.7049 113.424 32.3341C113.658 31.9634 113.78 31.5829 113.79 31.1927V28.6902L111.741 28.7341C110.697 28.7439 109.81 28.8512 109.078 29.0561C108.356 29.261 107.8 29.5781 107.41 30.0073C107.029 30.4366 106.839 31.0073 106.839 31.7195C106.839 32.5293 107.117 33.1634 107.673 33.622C108.239 34.0707 108.956 34.2951 109.824 34.2951ZM120.819 36.1829V21.0512H123.877V23.2317C124.121 22.822 124.448 22.4366 124.858 22.0756C125.277 21.7146 125.789 21.422 126.394 21.1976C127.009 20.9732 127.716 20.861 128.516 20.861C129.463 20.861 130.336 21.0512 131.136 21.4317C131.945 21.8024 132.594 22.3878 133.082 23.1878C133.57 23.9781 133.814 25.0024 133.814 26.261V36.1829H130.682V26.5976C130.682 25.5146 130.389 24.7098 129.804 24.1829C129.228 23.6561 128.482 23.3927 127.565 23.3927C126.95 23.3927 126.365 23.4951 125.809 23.7C125.253 23.9049 124.804 24.2171 124.463 24.6366C124.121 25.0463 123.95 25.5634 123.95 26.1878V36.1829H120.819ZM144.396 41.1878C141.937 41.1878 140.035 40.8415 138.688 40.1488C137.342 39.4659 136.669 38.5098 136.669 37.2805C136.669 36.7439 136.796 36.2902 137.049 35.9195C137.313 35.539 137.62 35.2268 137.971 34.9829C138.332 34.739 138.664 34.5488 138.967 34.4122C139.269 34.2659 139.464 34.1634 139.552 34.1049C139.386 34.0073 139.171 33.8854 138.908 33.739C138.654 33.5829 138.425 33.3781 138.22 33.1244C138.015 32.861 137.913 32.5195 137.913 32.1C137.913 31.6122 138.142 31.1634 138.601 30.7537C139.069 30.3341 139.771 30.0268 140.708 29.8317C139.791 29.3829 139.079 28.7781 138.571 28.0171C138.064 27.2561 137.81 26.4463 137.81 25.5878C137.81 24.6024 138.088 23.7537 138.645 23.0415C139.201 22.3195 139.981 21.7683 140.986 21.3878C142.001 21.0073 143.191 20.8171 144.557 20.8171C145.562 20.8171 146.396 20.9293 147.059 21.1537C147.732 21.3781 148.352 21.6902 148.918 22.0902C149.103 22.022 149.367 21.9195 149.708 21.7829C150.059 21.6366 150.44 21.4805 150.849 21.3146C151.259 21.1488 151.649 20.9878 152.02 20.8317C152.401 20.6756 152.708 20.5488 152.942 20.4512L152.928 23.1732L150.293 23.6561C150.43 23.9488 150.537 24.2707 150.615 24.622C150.703 24.9732 150.747 25.2951 150.747 25.5878C150.747 26.4659 150.508 27.2756 150.03 28.0171C149.552 28.7488 148.835 29.3341 147.879 29.7732C146.923 30.2122 145.728 30.4317 144.293 30.4317C144.157 30.4317 143.981 30.4317 143.767 30.4317C143.552 30.422 143.371 30.4073 143.225 30.3878C142.318 30.4171 141.693 30.5244 141.352 30.7098C141.01 30.8854 140.84 31.0805 140.84 31.2951C140.84 31.5683 141.059 31.7537 141.498 31.8512C141.937 31.9488 142.659 32.0317 143.664 32.1C144.025 32.1293 144.484 32.1585 145.04 32.1878C145.606 32.2171 146.23 32.2561 146.913 32.3049C148.571 32.4024 149.835 32.8171 150.703 33.5488C151.581 34.2805 152.02 35.2512 152.02 36.461C152.02 37.8463 151.391 38.9781 150.132 39.8561C148.874 40.7439 146.962 41.1878 144.396 41.1878ZM144.937 39.2707C146.274 39.2707 147.284 39.0756 147.967 38.6854C148.649 38.3049 148.991 37.7341 148.991 36.9732C148.991 36.4073 148.771 35.9439 148.332 35.5829C147.893 35.222 147.235 35.0122 146.357 34.9537L142.318 34.6902C141.918 34.6707 141.518 34.7585 141.118 34.9537C140.728 35.1488 140.406 35.422 140.152 35.7732C139.898 36.1146 139.771 36.4951 139.771 36.9146C139.771 37.6756 140.191 38.2561 141.03 38.6561C141.869 39.0659 143.171 39.2707 144.937 39.2707ZM144.381 28.5146C145.396 28.5146 146.21 28.2707 146.825 27.7829C147.449 27.2854 147.762 26.5732 147.762 25.6463C147.762 24.6902 147.449 23.9537 146.825 23.4366C146.21 22.9098 145.396 22.6463 144.381 22.6463C143.357 22.6463 142.528 22.9098 141.893 23.4366C141.269 23.9634 140.957 24.7 140.957 25.6463C140.957 26.5439 141.254 27.2463 141.849 27.7537C142.454 28.261 143.298 28.5146 144.381 28.5146ZM159.978 36.4756C159.002 36.4756 158.134 36.3 157.373 35.9488C156.621 35.5976 156.031 35.0902 155.602 34.4268C155.173 33.7634 154.958 32.9634 154.958 32.0268C154.958 30.3488 155.548 29.0951 156.729 28.2659C157.919 27.4366 159.821 26.9976 162.436 26.9488L164.924 26.8756V25.7781C164.924 24.9098 164.665 24.2268 164.148 23.7293C163.631 23.2317 162.831 22.9878 161.748 22.9976C160.948 22.9976 160.231 23.1829 159.597 23.5537C158.963 23.9244 158.548 24.5341 158.353 25.3829H155.646C155.704 24.3781 155.992 23.5341 156.509 22.8512C157.036 22.1585 157.758 21.6366 158.675 21.2854C159.592 20.9341 160.665 20.7585 161.895 20.7585C163.28 20.7585 164.417 20.9488 165.304 21.3293C166.192 21.7 166.851 22.2463 167.28 22.9683C167.719 23.6902 167.938 24.5683 167.938 25.6024V36.1829H165.275L165.041 33.4024C164.475 34.5634 163.758 35.3683 162.89 35.8171C162.021 36.2561 161.051 36.4756 159.978 36.4756ZM160.958 34.2951C161.436 34.2951 161.909 34.2122 162.378 34.0463C162.846 33.8707 163.27 33.6366 163.651 33.3439C164.031 33.0415 164.334 32.7049 164.558 32.3341C164.792 31.9634 164.914 31.5829 164.924 31.1927V28.6902L162.875 28.7341C161.831 28.7439 160.943 28.8512 160.212 29.0561C159.49 29.261 158.934 29.5781 158.543 30.0073C158.163 30.4366 157.973 31.0073 157.973 31.7195C157.973 32.5293 158.251 33.1634 158.807 33.622C159.373 34.0707 160.09 34.2951 160.958 34.2951ZM171.952 36.1829V21.0512H175.011V23.2317C175.255 22.822 175.582 22.4366 175.991 22.0756C176.411 21.7146 176.923 21.422 177.528 21.1976C178.143 20.9732 178.85 20.861 179.65 20.861C180.596 20.861 181.469 21.0512 182.269 21.4317C183.079 21.8024 183.728 22.3878 184.216 23.1878C184.704 23.9781 184.947 25.0024 184.947 26.261V36.1829H181.816V26.5976C181.816 25.5146 181.523 24.7098 180.938 24.1829C180.362 23.6561 179.616 23.3927 178.699 23.3927C178.084 23.3927 177.499 23.4951 176.943 23.7C176.387 23.9049 175.938 24.2171 175.596 24.6366C175.255 25.0463 175.084 25.5634 175.084 26.1878V36.1829H171.952ZM189.032 36.1829V21.0512H192.047V36.1829H189.032ZM188.959 18.1244V15.0366H192.105V18.1244H188.959Z" fill="white"/>
</svg>
