<svg width="185" height="27" viewBox="0 0 185 27" fill="none" xmlns="http://www.w3.org/2000/svg">
<path d="M0.678049 22V0.839022H5.09756L11.0537 17.6683L17.0976 0.839022H21.4878V22H18.2829V5.14146L12.4293 22H9.69268L3.86829 5.27317V22H0.678049ZM26.3479 22V6.86829H29.3626V22H26.3479ZM26.2748 3.94146V0.853657H29.4211V3.94146H26.2748ZM33.8491 22V0.253657H36.9369V9.07805C37.1808 8.67805 37.5076 8.29756 37.9174 7.93658C38.3369 7.57561 38.8442 7.28293 39.4393 7.05854C40.0442 6.82439 40.7466 6.70732 41.5466 6.70732C42.532 6.70732 43.4198 6.89268 44.2101 7.26341C45.0101 7.62439 45.6442 8.15122 46.1125 8.8439C46.5906 9.52683 46.8296 10.3415 46.8296 11.2878V22H43.6979V11.8585C43.6979 11.0098 43.4052 10.3561 42.8198 9.89756C42.2345 9.43902 41.4832 9.20976 40.5662 9.20976C39.9515 9.20976 39.3662 9.31707 38.8101 9.53171C38.2637 9.73658 37.8198 10.0488 37.4784 10.4683C37.1466 10.878 36.9808 11.3951 36.9808 12.0195V22H33.8491ZM50.9287 22V6.86829H53.9434V22H50.9287ZM50.8556 3.94146V0.853657H54.0019V3.94146H50.8556ZM58.4299 22V6.86829H61.4299V9.97073C61.6835 9.22927 62.0348 8.60975 62.4835 8.11219C62.9421 7.60488 63.4738 7.22439 64.0787 6.97073C64.6835 6.70732 65.3226 6.57561 65.9957 6.57561C66.2006 6.57561 66.3957 6.59024 66.5811 6.61951C66.7665 6.63902 66.9128 6.67805 67.0201 6.73658V9.75122C66.8933 9.69268 66.7274 9.65366 66.5226 9.63415C66.3274 9.61463 66.1567 9.6 66.0104 9.59024C65.347 9.54146 64.7421 9.57561 64.1957 9.69268C63.6494 9.80976 63.1762 10.0049 62.7762 10.278C62.386 10.5512 62.0835 10.9073 61.8689 11.3463C61.664 11.7854 61.5616 12.3024 61.5616 12.8976V22H58.4299ZM84.9401 22.2927C83.9059 22.2927 82.9108 22.1659 81.9547 21.9122C81.0084 21.6585 80.145 21.2829 79.3645 20.7854C78.5938 20.278 77.9547 19.6488 77.4474 18.8976C76.9499 18.1463 76.6377 17.2683 76.5108 16.2634H79.7742C79.9401 17.0244 80.2669 17.6634 80.7547 18.1805C81.2523 18.6976 81.8718 19.0878 82.6133 19.3512C83.3645 19.6146 84.1938 19.7463 85.1011 19.7463C85.9401 19.7463 86.7157 19.6146 87.4279 19.3512C88.1401 19.0878 88.7157 18.7073 89.1547 18.2098C89.5938 17.7122 89.8133 17.1024 89.8133 16.3805C89.8133 15.5707 89.5401 14.9317 88.9938 14.4634C88.4572 13.9854 87.6474 13.6049 86.5645 13.322L82.3206 12.2683C81.2962 12.0244 80.3938 11.678 79.6133 11.2293C78.8328 10.7707 78.2279 10.1707 77.7986 9.42927C77.3694 8.67805 77.1547 7.75122 77.1547 6.64878C77.1547 5.41951 77.4913 4.35122 78.1645 3.4439C78.8474 2.52683 79.7694 1.81951 80.9303 1.32195C82.1011 0.824388 83.423 0.575608 84.8962 0.575608C86.584 0.575608 88.0035 0.863413 89.1547 1.43902C90.3157 2.01463 91.1938 2.77561 91.7889 3.72195C92.3938 4.65854 92.7011 5.67805 92.7108 6.78049H89.5206C89.4328 5.88293 89.1645 5.17073 88.7157 4.6439C88.2767 4.10732 87.7157 3.72195 87.0328 3.4878C86.3596 3.25366 85.6133 3.13658 84.7938 3.13658C83.3499 3.13658 82.262 3.45854 81.5303 4.10244C80.8084 4.73658 80.4474 5.49268 80.4474 6.37073C80.4474 7.18049 80.7108 7.81951 81.2377 8.2878C81.7742 8.7561 82.5645 9.11707 83.6084 9.37073L87.7059 10.3805C88.9938 10.6634 90.023 11.0878 90.7938 11.6537C91.5742 12.2098 92.1352 12.8683 92.4767 13.6293C92.8181 14.3805 92.9889 15.2049 92.9889 16.1024C92.9889 17.3024 92.6523 18.3707 91.9791 19.3073C91.306 20.2341 90.3645 20.9659 89.1547 21.5024C87.9547 22.0293 86.5499 22.2927 84.9401 22.2927ZM100.99 22.2927C100.014 22.2927 99.1462 22.1171 98.3852 21.7659C97.634 21.4146 97.0438 20.9073 96.6145 20.2439C96.1852 19.5805 95.9706 18.7805 95.9706 17.8439C95.9706 16.1659 96.5608 14.9122 97.7413 14.0829C98.9316 13.2537 100.834 12.8146 103.449 12.7659L105.936 12.6927V11.5951C105.936 10.7268 105.678 10.0439 105.161 9.54634C104.644 9.04878 103.844 8.80488 102.761 8.81463C101.961 8.81463 101.244 9 100.61 9.37073C99.9755 9.74146 99.5608 10.3512 99.3657 11.2H96.6584C96.7169 10.1951 97.0047 9.35122 97.5218 8.66829C98.0486 7.97561 98.7706 7.45366 99.6877 7.10244C100.605 6.75122 101.678 6.57561 102.907 6.57561C104.293 6.57561 105.429 6.76585 106.317 7.14634C107.205 7.51707 107.863 8.06341 108.293 8.78536C108.732 9.50732 108.951 10.3854 108.951 11.4195V22H106.288L106.054 19.2195C105.488 20.3805 104.771 21.1854 103.902 21.6341C103.034 22.0732 102.063 22.2927 100.99 22.2927ZM101.971 20.1122C102.449 20.1122 102.922 20.0293 103.39 19.8634C103.858 19.6878 104.283 19.4537 104.663 19.161C105.044 18.8585 105.346 18.522 105.571 18.1512C105.805 17.7805 105.927 17.4 105.936 17.0098V14.5073L103.888 14.5512C102.844 14.561 101.956 14.6683 101.224 14.8732C100.502 15.078 99.9462 15.3951 99.5559 15.8244C99.1755 16.2537 98.9852 16.8244 98.9852 17.5366C98.9852 18.3463 99.2633 18.9805 99.8194 19.439C100.385 19.8878 101.102 20.1122 101.971 20.1122ZM112.965 22V6.86829H116.023V9.04878C116.267 8.63902 116.594 8.25366 117.004 7.89268C117.423 7.53171 117.936 7.23902 118.541 7.01463C119.155 6.79024 119.862 6.67805 120.662 6.67805C121.609 6.67805 122.482 6.86829 123.282 7.24878C124.092 7.61951 124.741 8.20488 125.228 9.00488C125.716 9.79512 125.96 10.8195 125.96 12.078V22H122.828V12.4146C122.828 11.3317 122.536 10.5268 121.95 10C121.375 9.47317 120.628 9.20976 119.711 9.20976C119.097 9.20976 118.511 9.31219 117.955 9.51707C117.399 9.72195 116.95 10.0341 116.609 10.4537C116.267 10.8634 116.097 11.3805 116.097 12.0049V22H112.965ZM136.542 27.0049C134.084 27.0049 132.181 26.6585 130.835 25.9659C129.488 25.2829 128.815 24.3268 128.815 23.0976C128.815 22.561 128.942 22.1073 129.196 21.7366C129.459 21.3561 129.767 21.0439 130.118 20.8C130.479 20.5561 130.81 20.3659 131.113 20.2293C131.415 20.0829 131.61 19.9805 131.698 19.922C131.532 19.8244 131.318 19.7024 131.054 19.5561C130.801 19.4 130.571 19.1951 130.367 18.9415C130.162 18.678 130.059 18.3366 130.059 17.9171C130.059 17.4293 130.288 16.9805 130.747 16.5707C131.215 16.1512 131.918 15.8439 132.854 15.6488C131.937 15.2 131.225 14.5951 130.718 13.8341C130.21 13.0732 129.957 12.2634 129.957 11.4049C129.957 10.4195 130.235 9.57073 130.791 8.85854C131.347 8.13658 132.128 7.58536 133.132 7.20488C134.147 6.82439 135.337 6.63414 136.703 6.63414C137.708 6.63414 138.542 6.74634 139.206 6.97073C139.879 7.19512 140.498 7.50732 141.064 7.90732C141.249 7.83902 141.513 7.73658 141.854 7.6C142.206 7.45366 142.586 7.29756 142.996 7.13171C143.406 6.96585 143.796 6.80488 144.167 6.64878C144.547 6.49268 144.854 6.36585 145.088 6.26829L145.074 8.99024L142.44 9.47317C142.576 9.76585 142.684 10.0878 142.762 10.439C142.849 10.7902 142.893 11.1122 142.893 11.4049C142.893 12.2829 142.654 13.0927 142.176 13.8341C141.698 14.5659 140.981 15.1512 140.025 15.5902C139.069 16.0293 137.874 16.2488 136.44 16.2488C136.303 16.2488 136.128 16.2488 135.913 16.2488C135.698 16.239 135.518 16.2244 135.371 16.2049C134.464 16.2341 133.84 16.3415 133.498 16.5268C133.157 16.7024 132.986 16.8976 132.986 17.1122C132.986 17.3854 133.206 17.5707 133.645 17.6683C134.084 17.7659 134.806 17.8488 135.81 17.9171C136.171 17.9463 136.63 17.9756 137.186 18.0049C137.752 18.0341 138.376 18.0732 139.059 18.122C140.718 18.2195 141.981 18.6341 142.849 19.3659C143.728 20.0976 144.167 21.0683 144.167 22.278C144.167 23.6634 143.537 24.7951 142.279 25.6732C141.02 26.561 139.108 27.0049 136.542 27.0049ZM137.084 25.0878C138.42 25.0878 139.43 24.8927 140.113 24.5024C140.796 24.122 141.137 23.5512 141.137 22.7902C141.137 22.2244 140.918 21.761 140.479 21.4C140.04 21.039 139.381 20.8293 138.503 20.7707L134.464 20.5073C134.064 20.4878 133.664 20.5756 133.264 20.7707C132.874 20.9659 132.552 21.239 132.298 21.5902C132.045 21.9317 131.918 22.3122 131.918 22.7317C131.918 23.4927 132.337 24.0732 133.176 24.4732C134.015 24.8829 135.318 25.0878 137.084 25.0878ZM136.528 14.3317C137.542 14.3317 138.357 14.0878 138.971 13.6C139.596 13.1024 139.908 12.3902 139.908 11.4634C139.908 10.5073 139.596 9.77073 138.971 9.25366C138.357 8.72683 137.542 8.46341 136.528 8.46341C135.503 8.46341 134.674 8.72683 134.04 9.25366C133.415 9.78049 133.103 10.5171 133.103 11.4634C133.103 12.361 133.401 13.0634 133.996 13.5707C134.601 14.078 135.445 14.3317 136.528 14.3317ZM152.124 22.2927C151.148 22.2927 150.28 22.1171 149.519 21.7659C148.768 21.4146 148.178 20.9073 147.748 20.2439C147.319 19.5805 147.104 18.7805 147.104 17.8439C147.104 16.1659 147.695 14.9122 148.875 14.0829C150.065 13.2537 151.968 12.8146 154.582 12.7659L157.07 12.6927V11.5951C157.07 10.7268 156.812 10.0439 156.295 9.54634C155.778 9.04878 154.978 8.80488 153.895 8.81463C153.095 8.81463 152.378 9 151.743 9.37073C151.109 9.74146 150.695 10.3512 150.499 11.2H147.792C147.851 10.1951 148.138 9.35122 148.656 8.66829C149.182 7.97561 149.904 7.45366 150.821 7.10244C151.738 6.75122 152.812 6.57561 154.041 6.57561C155.426 6.57561 156.563 6.76585 157.451 7.14634C158.338 7.51707 158.997 8.06341 159.426 8.78536C159.865 9.50732 160.085 10.3854 160.085 11.4195V22H157.421L157.187 19.2195C156.621 20.3805 155.904 21.1854 155.036 21.6341C154.168 22.0732 153.197 22.2927 152.124 22.2927ZM153.104 20.1122C153.582 20.1122 154.056 20.0293 154.524 19.8634C154.992 19.6878 155.417 19.4537 155.797 19.161C156.178 18.8585 156.48 18.522 156.704 18.1512C156.938 17.7805 157.06 17.4 157.07 17.0098V14.5073L155.021 14.5512C153.978 14.561 153.09 14.6683 152.358 14.8732C151.636 15.078 151.08 15.3951 150.69 15.8244C150.309 16.2537 150.119 16.8244 150.119 17.5366C150.119 18.3463 150.397 18.9805 150.953 19.439C151.519 19.8878 152.236 20.1122 153.104 20.1122ZM164.099 22V6.86829H167.157V9.04878C167.401 8.63902 167.728 8.25366 168.138 7.89268C168.557 7.53171 169.069 7.23902 169.674 7.01463C170.289 6.79024 170.996 6.67805 171.796 6.67805C172.743 6.67805 173.616 6.86829 174.416 7.24878C175.226 7.61951 175.874 8.20488 176.362 9.00488C176.85 9.79512 177.094 10.8195 177.094 12.078V22H173.962V12.4146C173.962 11.3317 173.669 10.5268 173.084 10C172.508 9.47317 171.762 9.20976 170.845 9.20976C170.23 9.20976 169.645 9.31219 169.089 9.51707C168.533 9.72195 168.084 10.0341 167.743 10.4537C167.401 10.8634 167.23 11.3805 167.23 12.0049V22H164.099ZM181.178 22V6.86829H184.193V22H181.178ZM181.105 3.94146V0.853657H184.252V3.94146H181.105Z" fill="white"/>
</svg>
